<?xml version="1.0" encoding="UTF-8"?>
<svg version="1.1" xmlns="http://www.w3.org/2000/svg" width="1536" height="1024">
<path d="M0 0 C31.46586195 27.96063957 53.18996934 65.77811672 55.78076172 108.43603516 C57.79523517 148.5598116 46.72890422 187.74467899 20.36230469 218.62402344 C18.60315481 220.66816699 18.60315481 220.66816699 18.89355469 223.68261719 C20.77443354 226.34851715 23.11800505 228.6013398 25.39355469 230.93261719 C25.99425781 231.59519531 26.59496094 232.25777344 27.21386719 232.94042969 C29.03427599 234.80731701 30.64993699 236.34863523 32.89355469 237.68261719 C34.97393085 237.63112273 36.7557669 237.19201543 38.77604675 236.71749878 C41.65301244 236.67010668 42.43893991 237.5877956 44.51977539 239.53271484 C45.56671066 240.50374146 45.56671066 240.50374146 46.63479614 241.49438477 C50.76211823 245.49283782 54.85365155 249.52139138 58.90527344 253.59667969 C60.30215141 254.99568008 60.30215141 254.99568008 61.72724915 256.42294312 C64.18193144 258.88140668 66.63359774 261.34285571 69.08459473 263.80499268 C71.57442892 266.30508355 74.06711386 268.80232854 76.55957031 271.29980469 C80.98822007 275.73805931 85.41529551 280.1778747 89.83750916 284.62254333 C91.52108917 286.30942191 93.21452667 287.98523337 94.91210938 289.65795898 C97.44456511 292.24564447 98.78354548 294.15659202 99.04589844 297.79589844 C98.33325299 305.09079642 95.64499099 309.19322244 90.26855469 314.05761719 C86.15203824 316.87418108 82.79042074 317.01460811 77.89355469 316.68261719 C73.21898941 314.73495982 70.03841195 312.22594516 66.43896484 308.69555664 C65.93090302 308.20078323 65.42284119 307.70600983 64.89938354 307.19624329 C63.23560056 305.57090709 61.58335978 303.93447092 59.93261719 302.29589844 C58.77541141 301.15342575 57.61813284 300.01102681 56.46078491 298.86869812 C54.04290869 296.47774357 51.63176897 294.0802063 49.22412109 291.67895508 C46.14225394 288.60798044 43.03574312 285.56328019 39.92255592 282.52410603 C37.52582106 280.17578828 35.14729413 277.80965623 32.77338791 275.43828392 C31.63567626 274.30779017 30.49136208 273.1839 29.3403511 272.06694984 C27.73122937 270.50187967 26.14946357 268.91332122 24.57177734 267.31665039 C23.66610016 266.41968948 22.76042297 265.52272858 21.82730103 264.59858704 C19.18155866 260.60897123 19.5331753 258.40984618 19.89355469 253.68261719 C20.20630779 250.70583644 20.20630779 250.70583644 18.51660156 248.96508789 C17.88818359 248.35238037 17.25976562 247.73967285 16.61230469 247.10839844 C15.93554688 246.44130859 15.25878906 245.77421875 14.56152344 245.08691406 C13.84609375 244.39662109 13.13066406 243.70632813 12.39355469 242.99511719 C11.678125 242.29322266 10.96269531 241.59132813 10.22558594 240.86816406 C8.45475891 239.13275358 6.67732013 237.40470989 4.89355469 235.68261719 C3.68626939 236.58592358 2.47930487 237.4896587 1.27246094 238.39355469 C0.53785645 238.94366211 -0.19674805 239.49376953 -0.95361328 240.06054688 C-2.69336189 241.37137584 -4.41965144 242.70005617 -6.14160156 244.03417969 C-38.63090044 268.4325951 -78.76445281 278.87511592 -119.0534668 273.91308594 C-153.57349567 268.85917321 -183.19248054 252.60684911 -208.10644531 228.68261719 C-208.66259521 228.14983154 -209.21874512 227.6170459 -209.79174805 227.06811523 C-237.20230013 200.31478185 -252.61089688 161.40204904 -253.45849609 123.39453125 C-253.6527471 96.20765616 -247.73002312 69.39844881 -234.10644531 45.68261719 C-233.58679199 44.74699951 -233.58679199 44.74699951 -233.05664062 43.79248047 C-212.89569902 7.55627756 -179.46403294 -18.42860725 -139.76269531 -30.06738281 C-91.70600203 -43.39872464 -38.04331087 -32.55209487 0 0 Z M-180.10644531 7.68261719 C-180.89792969 8.24980469 -181.68941406 8.81699219 -182.50488281 9.40136719 C-201.57321162 23.84515113 -215.3861602 41.978865 -225.10644531 63.68261719 C-225.52966064 64.62403564 -225.52966064 64.62403564 -225.96142578 65.58447266 C-237.72227495 92.20404936 -240.7149584 122.30176841 -234.10644531 150.68261719 C-233.87296387 151.71080566 -233.87296387 151.71080566 -233.63476562 152.75976562 C-229.58956209 169.88526801 -221.71599924 186.64859338 -211.10644531 200.68261719 C-210.11451172 202.00519531 -210.11451172 202.00519531 -209.10253906 203.35449219 C-185.73517917 233.13389006 -152.84872117 252.96298332 -115.10644531 257.68261719 C-110.3820969 257.89050238 -105.65914296 257.9105691 -100.9309082 257.92285156 C-98.70582229 257.93245798 -96.48170197 257.96349222 -94.25683594 257.99511719 C-80.61116809 258.0974713 -67.74945987 256.03333186 -54.79394531 251.62011719 C-53.91859131 251.32339111 -53.0432373 251.02666504 -52.14135742 250.72094727 C-15.6133014 237.80028495 11.52814915 210.80291813 28.29980469 176.26855469 C42.77486629 143.69966607 44.08541279 106.14586001 31.89355469 72.68261719 C25.90492264 57.17265838 17.88675686 42.258667 6.89355469 29.68261719 C5.90355469 29.35261719 4.91355469 29.02261719 3.89355469 28.68261719 C3.61640625 27.95171875 3.33925781 27.22082031 3.05371094 26.46777344 C1.55042483 22.85887446 -0.81874159 20.68274048 -3.66894531 18.12011719 C-4.24193359 17.60271973 -4.81492187 17.08532227 -5.40527344 16.55224609 C-31.5695199 -6.5474048 -63.43378069 -18.78318498 -98.35644531 -18.62988281 C-99.3780777 -18.62615158 -99.3780777 -18.62615158 -100.42034912 -18.62234497 C-129.47828154 -18.45852444 -156.54409004 -9.42894918 -180.10644531 7.68261719 Z " fill="#4290F0" transform="translate(547.1064453125,342.3173828125)"/>
<path d="M0 0 C4.09608041 3.17282173 4.743577 6.01095955 5.55224609 11.02709961 C5.66998886 11.72902939 5.78773163 12.43095917 5.90904236 13.15415955 C6.29598135 15.48464269 6.65967568 17.81813996 7.0234375 20.15234375 C7.29339862 21.80699867 7.56479983 23.4614192 7.83755493 25.11561584 C8.55650496 29.50011536 9.25589391 33.88752056 9.95123291 38.27581787 C10.63830927 42.59134619 11.34321209 46.90394782 12.046875 51.21679688 C13.29663628 58.89305719 14.53100023 66.57169417 15.75866318 74.25151634 C17.29541675 83.85891995 18.85456921 93.46267242 20.4140625 103.06640625 C20.67730119 104.68854887 20.94051609 106.31069535 21.20370483 107.93284607 C21.80227093 111.62192969 22.40105954 115.31097714 23 119 C23 118.34 23 117.68 23 117 C23.66 117 24.32 117 25 117 C25.10780289 116.40243393 25.21560577 115.80486786 25.32667542 115.18919373 C26.54490016 108.74511068 28.20978666 102.54540213 30.15234375 96.28515625 C30.45314346 95.30759872 30.75394318 94.3300412 31.06385803 93.32286072 C31.69579164 91.27587079 32.33038221 89.22969935 32.9675293 87.18432617 C33.94142299 84.04987395 34.89970893 80.91091293 35.85742188 77.77148438 C36.47561931 75.77574926 37.09472757 73.780296 37.71484375 71.78515625 C37.9993187 70.84769058 38.28379364 69.91022491 38.57688904 68.9443512 C38.85049759 68.07592087 39.12410614 67.20749054 39.40600586 66.31274414 C39.64202011 65.55014786 39.87803436 64.78755157 40.12120056 64.00184631 C41.10817639 61.75358142 42.10350169 60.54720168 44 59 C46.875 58.0625 46.875 58.0625 50 58 C54.01734179 60.64737451 56.01217667 63.28569316 58.11328125 67.5703125 C58.9012207 69.16166016 58.9012207 69.16166016 59.70507812 70.78515625 C60.23552734 71.88730469 60.76597656 72.98945313 61.3125 74.125 C61.86228516 75.23488281 62.41207031 76.34476562 62.97851562 77.48828125 C67 85.69111025 67 85.69111025 67 88 C67.56518845 87.99111755 68.13037689 87.98223511 68.71269226 87.9730835 C74.60124588 87.88451103 80.48960992 87.82422487 86.37866211 87.78027344 C88.57568042 87.76017233 90.77264532 87.73288694 92.96948242 87.69824219 C96.12952866 87.64965907 99.28886687 87.62701595 102.44921875 87.609375 C103.91979988 87.57840729 103.91979988 87.57840729 105.42008972 87.54681396 C109.75384876 87.54539167 112.3124446 87.60262876 116.12426758 89.80566406 C118 92 118 92 118.5625 95.5 C117.90876808 99.5676653 117.17386973 100.49495751 114 103 C111.49584961 103.5146637 111.49584961 103.5146637 108.65234375 103.53344727 C107.58443604 103.5492836 106.51652832 103.56511993 105.41625977 103.58143616 C104.26826904 103.57647629 103.12027832 103.57151642 101.9375 103.56640625 C100.16234009 103.57570412 100.16234009 103.57570412 98.35131836 103.58518982 C95.84978051 103.59229224 93.34819543 103.58910673 90.84667969 103.57641602 C87.01409165 103.56255098 83.18394424 103.596619 79.3515625 103.63476562 C76.9218744 103.63571679 74.49218324 103.63385816 72.0625 103.62890625 C70.34051392 103.64879356 70.34051392 103.64879356 68.58374023 103.66908264 C60.65091667 103.57598194 60.65091667 103.57598194 57.35546875 100.65991211 C56.90816406 99.78214111 56.46085938 98.90437012 56 98 C55.4225 96.948125 54.845 95.89625 54.25 94.8125 C53 92 53 92 53 90 C52.34 89.67 51.68 89.34 51 89 C51 88.01 51 87.02 51 86 C48.71414313 86.85923584 48.71414313 86.85923584 48.020401 89.61672974 C47.50768898 91.36710037 47.50768898 91.36710037 46.98461914 93.15283203 C46.79407455 93.79522324 46.60352997 94.43761444 46.4072113 95.09947205 C45.77602251 97.23354352 45.15577338 99.37064514 44.53515625 101.5078125 C44.09759948 102.99200734 43.6592286 104.47596239 43.22007751 105.95968628 C42.06222142 109.87764016 40.91301297 113.79807243 39.76629639 117.71929932 C37.93619288 123.97491719 36.09645544 130.22767761 34.25039482 136.47860336 C33.60892372 138.65704802 32.9731562 140.837099 32.33790588 143.0173645 C31.94040282 144.36857087 31.54270272 145.7197193 31.14477539 147.07080078 C30.80217178 148.2424881 30.45956818 149.41417542 30.10658264 150.62136841 C26.90492158 160.39671895 26.90492158 160.39671895 23 163 C16.54716981 162.54716981 16.54716981 162.54716981 14 160 C13.45807781 157.54246592 13.02719481 155.14626125 12.65893555 152.66162109 C12.53987854 151.90318405 12.42082153 151.14474701 12.29815674 150.36332703 C11.90319658 147.83450902 11.51998919 145.30405145 11.13671875 142.7734375 C10.86081528 140.99196346 10.58417581 139.21060327 10.30683899 137.42935181 C9.57323457 132.70475187 8.84949035 127.97869195 8.12780762 123.2522583 C7.41182323 118.57354743 6.68711393 113.89619136 5.96289062 109.21875 C4.83730662 101.94304379 3.71652421 94.66661525 2.59912109 87.38964844 C1.10870657 77.68705515 -0.40004562 67.98738709 -1.91796875 58.2890625 C-2.02627832 57.59697063 -2.1345879 56.90487877 -2.24617958 56.19181442 C-2.83014801 52.46110942 -3.41474412 48.73050324 -4 45 C-6.28666945 51.44744297 -8.02773033 57.9184584 -9.55859375 64.58203125 C-10.03128777 66.58543126 -10.50461348 68.58868231 -10.97851562 70.59179688 C-11.71334761 73.7152642 -12.44372267 76.83954025 -13.16333008 79.96655273 C-13.86547939 83.00824931 -14.5855591 86.04524168 -15.30859375 89.08203125 C-15.62442665 90.48519341 -15.62442665 90.48519341 -15.94664001 91.91670227 C-16.26200462 93.224076 -16.26200462 93.224076 -16.58374023 94.55786133 C-16.76122299 95.3212532 -16.93870575 96.08464508 -17.12156677 96.87117004 C-18.29578557 99.71681849 -19.54805449 101.13186883 -22 103 C-24.88378906 103.50793457 -24.88378906 103.50793457 -28.265625 103.51757812 C-30.16779785 103.53649109 -30.16779785 103.53649109 -32.10839844 103.55578613 C-33.48893795 103.5486263 -34.86947239 103.54042231 -36.25 103.53125 C-37.66959906 103.53394562 -39.08919631 103.53782863 -40.50878906 103.54284668 C-43.48129894 103.54873858 -46.45332741 103.54018954 -49.42578125 103.52148438 C-53.23258787 103.498694 -57.03826649 103.51181888 -60.84503174 103.53577423 C-63.77563956 103.55024114 -66.70598074 103.54562235 -69.63659668 103.53526306 C-71.03999974 103.53259819 -72.44342715 103.53585717 -73.84680176 103.54518127 C-75.80932135 103.55535941 -77.77192602 103.5370904 -79.734375 103.51757812 C-80.85038086 103.51439575 -81.96638672 103.51121338 -83.11621094 103.50793457 C-86.67114385 102.88178845 -87.85178368 101.85774677 -90 99 C-90.5625 95.5 -90.5625 95.5 -90 92 C-87.78510325 89.22698259 -85.94836917 88.12641482 -82.42025757 87.65612793 C-79.09958753 87.53559108 -75.80284197 87.55111143 -72.48046875 87.609375 C-71.26676102 87.61503479 -70.05305328 87.62069458 -68.80256653 87.62652588 C-64.93047456 87.64889558 -61.05931176 87.69909618 -57.1875 87.75 C-54.56056025 87.77006409 -51.93360598 87.78831501 -49.30664062 87.8046875 C-42.87077734 87.84876254 -36.43545506 87.91568208 -30 88 C-29.89473495 87.37125977 -29.78946991 86.74251953 -29.68101501 86.09472656 C-28.31321173 78.2305788 -26.51908251 70.50317641 -24.62890625 62.75 C-24.30241994 61.40207343 -23.97616634 60.05409047 -23.65013123 58.70605469 C-22.9704345 55.8986139 -22.28866314 53.09168844 -21.60522461 50.28515625 C-20.73691921 46.71918525 -19.87276263 43.15222548 -19.01004124 39.5848999 C-18.3378154 36.80648917 -17.66391758 34.02848612 -16.98948479 31.25061035 C-16.51755259 29.30622365 -16.04655081 27.3616112 -15.57557678 25.41699219 C-14.72868287 21.94163807 -13.86897942 18.46989223 -13 15 C-12.60335648 13.39838013 -12.60335648 13.39838013 -12.19869995 11.7644043 C-11.81791794 10.28580933 -11.81791794 10.28580933 -11.42944336 8.77734375 C-11.21017685 7.91616943 -10.99091034 7.05499512 -10.76499939 6.16772461 C-9.00171071 1.17121832 -5.11711134 -1.04966387 0 0 Z " fill="#4392F0" transform="translate(435,383)"/>
<path d="M0 0 C4.95 0 9.9 0 15 0 C15.33 14.19 15.66 28.38 16 43 C18.475 40.03 18.475 40.03 21 37 C21.78375 36.38125 22.5675 35.7625 23.375 35.125 C26.28894542 32.7660918 28.55061892 30.18260924 30.98046875 27.33984375 C33.27405907 24.68247314 35.63177307 22.09103432 38 19.5 C45.5014555 11.49890926 45.5014555 11.49890926 52.1171875 2.79296875 C53.74323001 0.83700457 54.58630128 0.09526053 57.08764648 -0.48071289 C59.52213254 -0.59027366 61.88041316 -0.52472595 64.3125 -0.375 C65.14845703 -0.34792969 65.98441406 -0.32085937 66.84570312 -0.29296875 C68.89825247 -0.22259563 70.94946591 -0.11498322 73 0 C71.5158627 3.48654476 69.53785948 5.64191072 66.8125 8.25 C61.23315969 13.71329003 56.19468087 19.38629076 51.5 25.625 C48.85289342 29.08341218 46.07663664 31.78692928 42.71484375 34.53125 C40.84515063 36.13262725 39.16413418 37.81097845 37.5 39.625 C36.9946875 40.17414063 36.489375 40.72328125 35.96875 41.2890625 C34.83400251 42.94137297 34.83400251 42.94137297 35.078125 44.8515625 C36.37507207 47.87410863 38.2159324 50.16476569 40.25 52.75 C40.68530029 53.3063916 41.12060059 53.8627832 41.5690918 54.43603516 C45.78750918 59.80036862 50.10353774 65.08890395 54.44433594 70.35449219 C57.00276348 73.47123746 59.45729909 76.60372529 61.76171875 79.9140625 C63.65052238 83.01753358 63.65052238 83.01753358 66 84 C66.391875 84.66 66.78375 85.32 67.1875 86 C69.37204762 89.61580296 71.93873866 92.81366077 74.57421875 96.109375 C76 98 76 98 76 99 C60.28750443 100.51081688 60.28750443 100.51081688 55.48046875 97.3359375 C53.43237054 94.66760912 51.75064641 91.87285564 50 89 C47.90505597 86.27367392 45.69983177 83.6419685 43.5 81 C42.37049107 79.61483228 41.24284741 78.2281412 40.1171875 76.83984375 C39.3142627 75.85153564 39.3142627 75.85153564 38.49511719 74.84326172 C32.91238096 67.96056111 27.41967877 61.01170942 22 54 C21.195625 54.804375 20.39125 55.60875 19.5625 56.4375 C18.375 57.625 17.1875 58.8125 16 60 C15.83976438 62.88252645 15.74045971 65.74378527 15.68359375 68.62890625 C15.66281265 69.49313705 15.64203156 70.35736786 15.62062073 71.24778748 C15.55502886 74.01927445 15.49619582 76.79085921 15.4375 79.5625 C15.39432392 81.43685923 15.35070994 83.31120843 15.30664062 85.18554688 C15.19933773 89.79026336 15.09809785 94.39507858 15 99 C10.05 99 5.1 99 0 99 C0 66.33 0 33.66 0 0 Z " fill="#ECEDF0" transform="translate(742,390)"/>
<path d="M0 0 C7.20980385 5.12053071 12.54830373 12.44240813 14.34375 21.23828125 C14.89269962 26.66478322 14.89953001 32.15196901 14.58203125 37.59375 C13.58203125 38.59375 13.58203125 38.59375 11.52561951 38.71400452 C10.6218306 38.71178391 9.71804169 38.70956329 8.78686523 38.70727539 C7.76588242 38.70719986 6.7448996 38.70712433 5.69297791 38.70704651 C4.58257645 38.70188522 3.47217499 38.69672394 2.328125 38.69140625 C1.19754166 38.6899913 0.06695831 38.68857635 -1.09788513 38.68711853 C-4.7254394 38.68150019 -8.35293299 38.66894458 -11.98046875 38.65625 C-14.43294182 38.65123736 -16.88541585 38.64667405 -19.33789062 38.64257812 C-25.3646042 38.6315248 -31.39128214 38.61476884 -37.41796875 38.59375 C-37.10569336 39.86895508 -36.79341797 41.14416016 -36.47167969 42.45800781 C-36.29602478 43.17531067 -36.12036987 43.89261353 -35.93939209 44.63165283 C-34.64323599 49.50904137 -32.38287826 52.84545283 -28.35546875 55.96875 C-22.08345052 59.43837711 -15.03260501 59.56565515 -8.0625 58.09765625 C-3.33029518 56.47753971 -0.14228124 53.87469195 3.58203125 50.59375 C4.24203125 50.59375 4.90203125 50.59375 5.58203125 50.59375 C7.08984375 52.34375 7.08984375 52.34375 8.70703125 54.59375 C9.24585938 55.33625 9.7846875 56.07875 10.33984375 56.84375 C10.74976563 57.42125 11.1596875 57.99875 11.58203125 58.59375 C9.18729205 64.39879842 3.92264149 66.86562663 -1.44921875 69.64453125 C-10.17872644 73.18669687 -21.55427629 72.89528433 -30.41796875 70.03125 C-35.63047862 67.82083228 -39.51850958 64.65066951 -43.41796875 60.59375 C-44.16046875 59.830625 -44.90296875 59.0675 -45.66796875 58.28125 C-52.27095412 48.14095104 -53.75140625 36.419375 -51.66796875 24.65625 C-49.10488462 13.14925692 -44.85322536 6.36548769 -34.87109375 -0.046875 C-23.89120834 -6.1312701 -10.91469853 -6.34780528 0 0 Z M-32.41796875 13.59375 C-35.34759564 18.23168176 -37.41796875 22.05192161 -37.41796875 27.59375 C-24.87796875 27.59375 -12.33796875 27.59375 0.58203125 27.59375 C-0.04908723 18.88809421 -0.04908723 18.88809421 -4.41796875 12.59375 C-13.13713622 5.8434268 -24.19620255 6.28551337 -32.41796875 13.59375 Z " fill="#EBECEF" transform="translate(1064.41796875,419.40625)"/>
<path d="M0 0 C5.73089533 4.64040107 8.48374164 11.30311528 9.6875 18.4375 C9.77013667 20.15508657 9.80537873 21.87540288 9.80102539 23.5949707 C9.80094986 24.59563065 9.80087433 25.59629059 9.80079651 26.62727356 C9.79563522 27.6951561 9.79047394 28.76303864 9.78515625 29.86328125 C9.7837413 30.96600876 9.78232635 32.06873627 9.78086853 33.20487976 C9.77528004 36.71994767 9.76272959 40.23495141 9.75 43.75 C9.74498352 46.13606679 9.74042087 48.52213457 9.73632812 50.90820312 C9.72531437 56.75132673 9.70805758 62.59440249 9.6875 68.4375 C5.3975 68.4375 1.1075 68.4375 -3.3125 68.4375 C-3.6425 66.4575 -3.9725 64.4775 -4.3125 62.4375 C-7.86288751 64.14518079 -11.10648379 66.17948184 -14.41015625 68.31640625 C-20.66077214 72.0000341 -29.3387308 71.278311 -36.2109375 69.82421875 C-42.47311454 67.63727384 -46.90781953 64.16131064 -50.3125 58.4375 C-52.91323978 51.83313176 -52.92357708 45.04071972 -50.3125 38.4375 C-46.02059106 31.4055588 -40.24792827 28.2569151 -32.56030273 25.90039062 C-29.7429681 25.32021614 -27.11101644 25.32574257 -24.234375 25.33984375 C-23.07421875 25.34306641 -21.9140625 25.34628906 -20.71875 25.34960938 C-18.90890625 25.36217773 -18.90890625 25.36217773 -17.0625 25.375 C-15.22945312 25.38176758 -15.22945312 25.38176758 -13.359375 25.38867188 C-10.34370054 25.40045185 -7.32812502 25.41690147 -4.3125 25.4375 C-4.74800429 23.4909705 -5.1972429 21.54751002 -5.65234375 19.60546875 C-5.90105225 18.52289795 -6.14976074 17.44032715 -6.40600586 16.32495117 C-7.54167177 12.70752033 -8.98982044 11.22663515 -12.3125 9.4375 C-17.52717161 6.8301642 -26.62823144 7.65195122 -32.12890625 9.26171875 C-34.25684737 10.23027402 -36.27876285 11.28665954 -38.3125 12.4375 C-39.97444738 13.11584587 -41.63848903 13.78949575 -43.3125 14.4375 C-44.9625 12.1275 -46.6125 9.8175 -48.3125 7.4375 C-45.85008865 1.16954383 -40.406828 -1.1616614 -34.59375 -3.73046875 C-23.38152004 -7.81986084 -9.96473801 -6.56259798 0 0 Z M-36.1875 41.3125 C-37.54268153 43.87228733 -38.1769069 45.52224827 -38.3125 48.4375 C-37.14400236 52.20265905 -36.28812313 54.68661863 -33.125 57.12109375 C-27.40388546 59.79889319 -20.0147666 59.48109193 -13.984375 57.78125 C-8.74924007 55.14092108 -6.54758797 50.73106792 -4.5625 45.4375 C-4.18789438 42.44065502 -4.29853358 39.45424567 -4.3125 36.4375 C-7.99984775 36.34973815 -11.68692347 36.29685397 -15.375 36.25 C-16.41333984 36.22486328 -17.45167969 36.19972656 -18.52148438 36.17382812 C-25.32452331 36.10903728 -31.11320502 36.23820502 -36.1875 41.3125 Z " fill="#ECEDF0" transform="translate(1223.3125,420.5625)"/>
<path d="M0 0 C1.98081673 -0.00115575 3.96163325 -0.00274629 5.94244933 -0.00472724 C11.32022742 -0.00885757 16.6979875 -0.00685881 22.07576561 -0.00374103 C27.89960215 -0.0014615 33.72343578 -0.00497895 39.54727173 -0.00772095 C50.92474599 -0.0121488 62.30221362 -0.01121599 73.67968813 -0.00830831 C82.92069341 -0.00604473 92.16169685 -0.00574588 101.40270233 -0.00683212 C102.72064027 -0.00698536 104.03857821 -0.00713859 105.39645366 -0.00729647 C107.40274327 -0.00753442 109.40903288 -0.00777563 111.41532249 -0.00802336 C136.42582313 -0.01107476 161.43632016 -0.00831968 186.44682024 -0.00292646 C208.67107137 0.00182943 230.89531678 0.00138437 253.11956787 -0.00338745 C278.1166746 -0.00873677 303.11377816 -0.01086936 328.11088538 -0.00777519 C330.77218358 -0.00745664 333.43348177 -0.00714227 336.09477997 -0.00683212 C338.05885152 -0.00660071 338.05885152 -0.00660071 340.06260128 -0.00636462 C349.30622319 -0.00549982 358.54984307 -0.00696134 367.79346466 -0.00931168 C379.03687233 -0.01210783 390.28027302 -0.01137491 401.52367988 -0.00603093 C407.26355891 -0.00339302 413.00342625 -0.00239052 418.74330521 -0.00568008 C423.98785991 -0.00864056 429.23239202 -0.00705449 434.47694466 -0.00170253 C436.38278222 -0.0005774 438.28862166 -0.00117161 440.19445804 -0.00357832 C442.76710886 -0.00658019 445.33968028 -0.0035401 447.91232681 0.0011425 C449.04488474 -0.00236925 449.04488474 -0.00236925 450.20032263 -0.00595194 C455.29643282 0.01283297 455.29643282 0.01283297 456.4105835 1.12698364 C456.4105835 2.77698364 456.4105835 4.42698364 456.4105835 6.12698364 C292.0705835 6.12698364 127.7305835 6.12698364 -41.5894165 6.12698364 C-41.5894165 4.47698364 -41.5894165 2.82698364 -41.5894165 1.12698364 C-27.71407576 0.3586731 -13.89528492 -0.01800175 0 0 Z " fill="#3988EA" transform="translate(780.5894165039063,611.8730163574219)"/>
<path d="M0 0 C7.65042591 5.50506838 12.42260595 13.06260092 14.25 22.3125 C15.42117352 34.50929204 15.65263342 46.70920124 8.33203125 57.01171875 C2.76083053 63.76618334 -3.99482059 68.71495385 -12.75 70.3125 C-25.11825255 71.14524107 -34.92483108 70.08513514 -44.93359375 62.078125 C-51.07859179 56.10492261 -55.73495954 48.04709564 -56.18359375 39.421875 C-56.20710429 37.6355709 -56.20766299 35.84884502 -56.1875 34.0625 C-56.17992676 33.13026611 -56.17235352 32.19803223 -56.16455078 31.23754883 C-55.91131024 20.65227906 -53.1617736 12.08208336 -45.75 4.3125 C-32.68491304 -7.3955209 -15.07435055 -9.25131547 0 0 Z M-37.75 15.3125 C-42.13171136 22.8962312 -42.67954859 32.65969059 -41.125 41.1875 C-39.43683602 47.23112706 -36.5708749 51.89221758 -31.625 55.75 C-25.25285784 59.21312074 -18.89837776 59.20454037 -12 57.25 C-6.3064825 53.85578765 -2.28993381 49.0874459 -0.21875 42.73828125 C1.59051678 33.37532567 1.1370054 22.80462605 -3.8515625 14.47265625 C-6.62421359 10.81454562 -9.41674599 8.70533165 -13.75 7.3125 C-23.97115336 6.1115812 -30.75019084 7.72281929 -37.75 15.3125 Z " fill="#EEEFF2" transform="translate(875.75,420.6875)"/>
<path d="M0 0 C5.1428371 5.58365171 8.31899076 13.01739048 8.30102539 20.58081055 C8.30094986 21.64168381 8.30087433 22.70255707 8.30079651 23.795578 C8.29563522 24.93940445 8.29047394 26.0832309 8.28515625 27.26171875 C8.2837413 28.43386429 8.28232635 29.60600983 8.28086853 30.81367493 C8.27526388 34.56330907 8.26271056 38.31288385 8.25 42.0625 C8.2449856 44.60221268 8.24042259 47.1419263 8.23632812 49.68164062 C8.22529294 55.91278335 8.20802515 62.1438816 8.1875 68.375 C3.5675 68.375 -1.0525 68.375 -5.8125 68.375 C-5.8218457 66.93253906 -5.83119141 65.49007812 -5.84082031 64.00390625 C-5.88083015 58.62876017 -5.94662038 53.25417981 -6.02001953 47.87939453 C-6.04816532 45.55752861 -6.06941149 43.23556801 -6.08349609 40.91357422 C-6.10501355 37.56689201 -6.15171124 34.22134051 -6.203125 30.875 C-6.20435364 29.8444751 -6.20558228 28.8139502 -6.20684814 27.75219727 C-6.35293251 20.48886494 -7.43225386 14.65281444 -12.875 9.375 C-18.89248784 7.3264935 -25.36036884 7.39341384 -31.25 9.875 C-35.51351975 12.49119411 -37.23610316 15.69479559 -38.8125 20.375 C-39.37323125 24.14100922 -39.41724241 27.85312423 -39.421875 31.65625 C-39.43841125 32.71034058 -39.45494751 33.76443115 -39.47198486 34.85046387 C-39.5202742 38.19203632 -39.54179404 41.53315428 -39.5625 44.875 C-39.59067553 47.1510643 -39.62060515 49.4271076 -39.65234375 51.703125 C-39.72602847 57.26037923 -39.77571979 62.81738396 -39.8125 68.375 C-44.4325 68.375 -49.0525 68.375 -53.8125 68.375 C-53.8125 44.615 -53.8125 20.855 -53.8125 -3.625 C-49.5225 -3.625 -45.2325 -3.625 -40.8125 -3.625 C-40.8125 -0.655 -40.8125 2.315 -40.8125 5.375 C-40.1525 5.375 -39.4925 5.375 -38.8125 5.375 C-38.626875 4.818125 -38.44125 4.26125 -38.25 3.6875 C-35.62429552 -0.53645939 -31.47911104 -2.82957201 -27.0625 -4.9375 C-16.85451493 -7.09688146 -8.91166739 -5.14896338 0 0 Z " fill="#EDEEF1" transform="translate(1147.8125,420.625)"/>
<path d="M0 0 C4.29 0 8.58 0 13 0 C13 6.93 13 13.86 13 21 C19.6 21 26.2 21 33 21 C33 24.96 33 28.92 33 33 C26.4 33 19.8 33 13 33 C13.09703198 38.747868 13.19982345 44.49503128 13.31738281 50.24243164 C13.35561789 52.19679509 13.39048027 54.15122759 13.421875 56.10571289 C13.46764435 58.91838222 13.52561923 61.73057839 13.5859375 64.54296875 C13.59748871 65.41398727 13.60903992 66.2850058 13.62094116 67.18241882 C13.75283363 72.62861521 13.9625118 76.9625118 18 81 C21.32444964 81.20560448 21.32444964 81.20560448 25.0625 81.0625 C27.37446365 81.00851506 29.68749671 80.97953537 32 81 C33 82 33 82 33.09765625 84.50390625 C33.08605469 85.51324219 33.07445312 86.52257812 33.0625 87.5625 C33.05347656 88.57441406 33.04445313 89.58632813 33.03515625 90.62890625 C33.02355469 91.41136719 33.01195312 92.19382812 33 93 C25.23021315 95.64503382 17.95874347 96.03757656 10.1484375 93.1875 C5.35490679 90.53798484 1.72122104 86.16366313 0 81 C-0.11448477 79.42038841 -0.17622932 77.83666148 -0.20532227 76.25317383 C-0.22526749 75.29240433 -0.24521271 74.33163483 -0.26576233 73.3417511 C-0.28247482 72.30729355 -0.29918732 71.272836 -0.31640625 70.20703125 C-0.33718735 69.14586594 -0.35796844 68.08470062 -0.37937927 66.99137878 C-0.44481238 63.59848563 -0.50373093 60.2055145 -0.5625 56.8125 C-0.60569114 54.51366378 -0.64930562 52.21483547 -0.69335938 49.91601562 C-0.8004874 44.2774264 -0.90226551 38.63875944 -1 33 C-2.98567708 33.03255208 -4.97135417 33.06510417 -6.95703125 33.09765625 C-9.59587414 32.97151653 -11.65126249 32.17436876 -14 31 C-14 27.7 -14 24.4 -14 21 C-9.71 21 -5.42 21 -1 21 C-0.67 14.07 -0.34 7.14 0 0 Z " fill="#EFF0F3" transform="translate(970,396)"/>
<path d="M0 0 C0 3.96 0 7.92 0 12 C-3.31653553 12.66330711 -6.07846811 13.10423535 -9.375 13.3125 C-13.93991033 13.82899568 -17.5507185 14.86428954 -21 18 C-25.85618012 25.05548358 -26.16103516 32.37482697 -26.31640625 40.67578125 C-26.33718735 41.6009404 -26.35796844 42.52609955 -26.37937927 43.47929382 C-26.4445656 46.42362307 -26.50361558 49.36803865 -26.5625 52.3125 C-26.60571464 54.31315983 -26.64932986 56.31381106 -26.69335938 58.31445312 C-26.8002152 63.20954779 -26.90156919 68.10472897 -27 73 C-31.62 73 -36.24 73 -41 73 C-41 49.24 -41 25.48 -41 1 C-36.71 1 -32.42 1 -28 1 C-27 2 -27 2 -26.90234375 3.84765625 C-26.95117188 6.92382812 -26.95117188 6.92382812 -27 10 C-26.34 10 -25.68 10 -25 10 C-24.773125 9.4225 -24.54625 8.845 -24.3125 8.25 C-21.51334054 3.45144093 -17.13445276 1.29676618 -12.05859375 -0.46875 C-7.80665188 -1.56602532 -4.12602428 -1.37534143 0 0 Z " fill="#EAEBEE" transform="translate(946,416)"/>
<path d="M0 0 C3.70703125 0.44140625 3.70703125 0.44140625 6.0078125 2.9765625 C6.70329758 4.13778172 7.37251138 5.31500134 8.01953125 6.50390625 C8.77275517 7.7798194 9.52804325 9.05451574 10.28515625 10.328125 C10.67380859 10.99763184 11.06246094 11.66713867 11.46289062 12.35693359 C13.59702415 15.93252858 15.94009274 19.36627962 18.26953125 22.81640625 C20.46609375 26.09578125 20.46609375 26.09578125 22.70703125 29.44140625 C23.03703125 19.87140625 23.36703125 10.30140625 23.70703125 0.44140625 C25.68703125 0.44140625 27.66703125 0.44140625 29.70703125 0.44140625 C29.87764621 4.33305227 30.03780197 8.22498997 30.18920898 12.11743164 C30.26738859 14.07524861 30.353312 16.03275154 30.43945312 17.99023438 C30.75379335 26.22594829 30.53981854 34.24118686 29.70703125 42.44140625 C26.51171875 42.85546875 26.51171875 42.85546875 22.70703125 42.44140625 C20.64811812 40.19360201 19.33052946 38.40107906 17.83203125 35.81640625 C17.41711426 35.14794678 17.00219727 34.4794873 16.57470703 33.79077148 C15.7074458 32.39202131 14.84998905 30.98714914 14.00195312 29.57666016 C12.35529085 26.86140596 10.63328792 24.19923634 8.90136719 21.5378418 C7.15640691 18.84774851 5.43391293 16.14314049 3.70703125 13.44140625 C3.37703125 23.01140625 3.04703125 32.58140625 2.70703125 42.44140625 C0.39703125 42.44140625 -1.91296875 42.44140625 -4.29296875 42.44140625 C-4.31761513 36.62069003 -4.33580305 30.80000391 -4.34790039 24.97924805 C-4.35294142 22.99747184 -4.35977413 21.01569936 -4.3684082 19.03393555 C-4.3804839 16.19188516 -4.3861992 13.34988378 -4.390625 10.5078125 C-4.39578629 9.61614883 -4.40094757 8.72448517 -4.40626526 7.80580139 C-4.40646052 5.68400024 -4.35506905 3.56229845 -4.29296875 1.44140625 C-3.29296875 0.44140625 -3.29296875 0.44140625 0 0 Z " fill="#3382E1" transform="translate(864.29296875,537.55859375)"/>
<path d="M0 0 C3.50625 -0.0825 7.0125 -0.165 10.625 -0.25 C11.71893066 -0.28641602 12.81286133 -0.32283203 13.93994141 -0.36035156 C19.96509533 -0.42888202 23.45890819 -0.08551302 28 4 C30.83308697 8.24963046 30.6499106 12.00961503 30 17 C28.94092922 19.54276899 27.87175545 20.90803802 26 23 C25.34 23 24.68 23 24 23 C24.52099787 27.89444482 25.99004796 31.13941114 28.5625 35.3125 C32 40.93561368 32 40.93561368 32 42 C29.36 42 26.72 42 24 42 C22.66141476 39.71125827 21.32898986 37.41930344 20 35.125 C19.6184375 34.47402344 19.236875 33.82304688 18.84375 33.15234375 C16 28.2265625 16 28.2265625 16 26 C12.04 26.495 12.04 26.495 8 27 C7.67 31.95 7.34 36.9 7 42 C4.69 42 2.38 42 0 42 C0 28.14 0 14.28 0 0 Z M7 7 C6.92741054 9.18639453 6.91626217 11.37500389 6.9375 13.5625 C6.94652344 14.76003906 6.95554687 15.95757813 6.96484375 17.19140625 C6.97644531 18.11824219 6.98804688 19.04507813 7 20 C14.17542074 20.3415574 14.17542074 20.3415574 21.1875 19.0625 C23.73746979 16.16081023 23.51814582 13.81885073 23.46875 10.05859375 C23.15936492 7.60926133 23.15936492 7.60926133 20 6 C17.0604536 5.72007757 17.0604536 5.72007757 13.875 5.8125 C12.79992188 5.81894531 11.72484375 5.82539062 10.6171875 5.83203125 C8.07385474 5.70602303 8.07385474 5.70602303 7 7 Z " fill="#3481E0" transform="translate(1087,538)"/>
<path d="M0 0 C8.91 0 17.82 0 27 0 C27 1.65 27 3.3 27 5 C26 6 26 6 24.05053711 6.11352539 C23.2178833 6.10828857 22.38522949 6.10305176 21.52734375 6.09765625 C20.62822266 6.09443359 19.72910156 6.09121094 18.80273438 6.08789062 C17.85720703 6.07951172 16.91167969 6.07113281 15.9375 6.0625 C14.98810547 6.05798828 14.03871094 6.05347656 13.06054688 6.04882812 C10.70700469 6.03700128 8.35349468 6.01906521 6 6 C6.33 9.63 6.66 13.26 7 17 C12.94 17 18.88 17 25 17 C25 18.98 25 20.96 25 23 C24 24 24 24 20.18359375 24.09765625 C18.60153318 24.09098089 17.01948841 24.07901875 15.4375 24.0625 C14.63119141 24.05798828 13.82488281 24.05347656 12.99414062 24.04882812 C10.99606244 24.03700518 8.99802217 24.01906914 7 24 C7 27.63 7 31.26 7 35 C13.6 35.33 20.2 35.66 27 36 C27 37.98 27 39.96 27 42 C18.09 42 9.18 42 0 42 C0 28.14 0 14.28 0 0 Z " fill="#3685E7" transform="translate(1051,538)"/>
<path d="M0 0 C2.31 0 4.62 0 7 0 C10.53722756 7.62392737 13.49707963 15.42529742 16.42871094 23.29589844 C17.25897017 25.52407334 18.09402655 27.75040855 18.9296875 29.9765625 C19.45861256 31.39052058 19.98726857 32.80457934 20.515625 34.21875 C20.8905307 35.21859924 20.8905307 35.21859924 21.27301025 36.23864746 C23 40.88424529 23 40.88424529 23 42 C20.69 42 18.38 42 16 42 C14.35 38.7 12.7 35.4 11 32 C9.083412 31.97287847 7.1667127 31.95354903 5.25 31.9375 C4.18265625 31.92589844 3.1153125 31.91429687 2.015625 31.90234375 C-1.61010934 31.95995528 -1.61010934 31.95995528 -5 33 C-6.35102993 35.0720554 -6.35102993 35.0720554 -7.25 37.5625 C-7.58515625 38.38878906 -7.9203125 39.21507812 -8.265625 40.06640625 C-8.50796875 40.70449219 -8.7503125 41.34257813 -9 42 C-11.31 42 -13.62 42 -16 42 C-14.52857316 37.94595073 -13.05336945 33.89330016 -11.57495117 29.84179688 C-11.07461268 28.46911028 -10.57523144 27.09607431 -10.0769043 25.72265625 C-6.93007444 17.05223683 -3.64081857 8.47891979 0 0 Z M3 8 C1.99600476 10.62353518 0.99665555 13.24867795 0 15.875 C-0.28617188 16.62136719 -0.57234375 17.36773438 -0.8671875 18.13671875 C-2.43336648 21.95985011 -2.43336648 21.95985011 -3 26 C1.29 26 5.58 26 10 26 C8.2177429 19.88940424 6.30678315 13.9317281 4 8 C3.67 8 3.34 8 3 8 Z " fill="#3684E3" transform="translate(917,538)"/>
<path d="M0 0 C2.31 0 4.62 0 7 0 C10.84451239 8.02672557 14.05217083 16.23187718 17.0769043 24.59228516 C17.82455778 26.65831997 18.57877499 28.72187272 19.33398438 30.78515625 C23 40.84160131 23 40.84160131 23 42 C20.69 42 18.38 42 16 42 C14.68 38.7 13.36 35.4 12 32 C6.39 32 0.78 32 -5 32 C-6.98 36.95 -6.98 36.95 -9 42 C-11.31 42 -13.62 42 -16 42 C-11.00394782 27.85105741 -5.90280088 13.7985088 0 0 Z M3 8 C2.15875684 10.24732102 1.32685168 12.49738785 0.5 14.75 C0.26152344 15.38421875 0.02304687 16.0184375 -0.22265625 16.671875 C-1.44801758 20.03286607 -2 22.36871587 -2 26 C1.96 26 5.92 26 10 26 C8.2177429 19.88940424 6.30678315 13.9317281 4 8 C3.67 8 3.34 8 3 8 Z " fill="#3886E5" transform="translate(755,538)"/>
<path d="M0 0 C1.134375 0.020625 2.26875 0.04125 3.4375 0.0625 C6.98620689 8.40580894 10.31194715 16.82221839 13.5144043 25.30297852 C14.26399105 27.2870324 15.01756231 29.26954307 15.77148438 31.25195312 C16.2502322 32.51553705 16.72875673 33.7792056 17.20703125 35.04296875 C17.63604736 36.17629639 18.06506348 37.30962402 18.50708008 38.47729492 C19.4375 41.0625 19.4375 41.0625 19.4375 42.0625 C17.1275 42.0625 14.8175 42.0625 12.4375 42.0625 C11.1175 38.7625 9.7975 35.4625 8.4375 32.0625 C2.8275 32.0625 -2.7825 32.0625 -8.5625 32.0625 C-10.5425 37.0125 -10.5425 37.0125 -12.5625 42.0625 C-14.5425 42.0625 -16.5225 42.0625 -18.5625 42.0625 C-17.11003401 33.95061446 -14.26279086 26.43686289 -11.33959961 18.76660156 C-10.49228906 16.54225739 -9.6546587 14.31444214 -8.81835938 12.0859375 C-8.28440872 10.67166551 -7.74992333 9.25759526 -7.21484375 7.84375 C-6.96379379 7.17718384 -6.71274384 6.51061768 -6.4540863 5.82385254 C-4.25686811 0.0746819 -4.25686811 0.0746819 0 0 Z M-0.5625 8.0625 C-1.56649524 10.68603518 -2.56584445 13.31117795 -3.5625 15.9375 C-3.84867188 16.68386719 -4.13484375 17.43023438 -4.4296875 18.19921875 C-5.99586648 22.02235011 -5.99586648 22.02235011 -6.5625 26.0625 C-2.2725 26.0625 2.0175 26.0625 6.4375 26.0625 C4.6552429 19.95190424 2.74428315 13.9942281 0.4375 8.0625 C0.1075 8.0625 -0.2225 8.0625 -0.5625 8.0625 Z " fill="#3887E6" transform="translate(834.5625,537.9375)"/>
<path d="M0 0 C10.23 0 20.46 0 31 0 C31 6.5171591 30.64582464 7.15835696 26.75 11.875 C25.83967758 13.00011572 24.9308972 14.12648035 24.0234375 15.25390625 C23.53713867 15.85090332 23.05083984 16.44790039 22.54980469 17.06298828 C19.73655995 20.57910103 17.06448017 24.20145229 14.375 27.8125 C12.60125 30.184375 10.8275 32.55625 9 35 C16.26 35.33 23.52 35.66 31 36 C31 37.98 31 39.96 31 42 C20.77 42 10.54 42 0 42 C0 35.25081593 0 35.25081593 2.5625 31.86328125 C3.1088208 31.12577637 3.6551416 30.38827148 4.21801758 29.62841797 C4.80607178 28.86416504 5.39412598 28.09991211 6 27.3125 C6.58998779 26.52246582 7.17997559 25.73243164 7.7878418 24.91845703 C8.96818984 23.33852964 10.15389705 21.76259032 11.34521484 20.19091797 C13.54274008 17.2814179 15.67872266 14.33153112 17.8125 11.375 C18.87467297 9.91642846 19.93702055 8.4579839 21 7 C20.39937744 6.97494385 19.79875488 6.9498877 19.17993164 6.92407227 C16.47388563 6.8084472 13.76821717 6.68557064 11.0625 6.5625 C10.11697266 6.52318359 9.17144531 6.48386719 8.19726562 6.44335938 C7.29814453 6.40146484 6.39902344 6.35957031 5.47265625 6.31640625 C4.64000244 6.27974854 3.80734863 6.24309082 2.94946289 6.20532227 C1 6 1 6 0 5 C0 3.35 0 1.7 0 0 Z " fill="#3582E1" transform="translate(1011,538)"/>
<path d="M0 0 C0.79792969 0.00193359 1.59585937 0.00386719 2.41796875 0.00585938 C3.24683594 0.01810547 4.07570313 0.03035156 4.9296875 0.04296875 C5.76628906 0.04361328 6.60289062 0.04425781 7.46484375 0.04492188 C13.66435587 0.09013712 13.66435587 0.09013712 14.8046875 1.23046875 C14.8046875 2.88046875 14.8046875 4.53046875 14.8046875 6.23046875 C-149.5353125 6.23046875 -313.8753125 6.23046875 -483.1953125 6.23046875 C-483.1953125 4.58046875 -483.1953125 2.93046875 -483.1953125 1.23046875 C-482.8653125 2.55046875 -482.5353125 3.87046875 -482.1953125 5.23046875 C-318.8453125 5.23046875 -155.4953125 5.23046875 12.8046875 5.23046875 C12.8046875 4.24046875 12.8046875 3.25046875 12.8046875 2.23046875 C6.2046875 2.23046875 -0.3953125 2.23046875 -7.1953125 2.23046875 C-4.11562187 0.17734167 -3.47562545 -0.01950879 0 0 Z " fill="#2D80DA" transform="translate(1222.1953125,611.76953125)"/>
<path d="M0 0 C3.125 -0.5625 3.125 -0.5625 7 0 C9.53390493 2.68618287 11.1903379 5.79898966 13 9 C14.64923036 11.67766199 16.32259502 14.33991458 18 17 C18.26627197 16.48501953 18.53254395 15.97003906 18.80688477 15.43945312 C20.0311496 13.110531 21.29579793 10.80609435 22.5625 8.5 C23.18995117 7.28376953 23.18995117 7.28376953 23.83007812 6.04296875 C25.08667162 3.79432776 26.22380417 1.86835424 28 0 C31.83984375 -0.53125 31.83984375 -0.53125 35 0 C33.63378723 4.6932594 31.67580944 8.44057617 29.0625 12.5625 C28.02802734 14.20412109 28.02802734 14.20412109 26.97265625 15.87890625 C25.80242711 17.73041731 24.58896931 19.55742518 23.2890625 21.3203125 C21.39972865 25.24783681 21.4315103 29.00432721 21.3125 33.3125 C21.26125977 34.56643555 21.26125977 34.56643555 21.20898438 35.84570312 C21.12694539 37.89667772 21.0617849 39.94831538 21 42 C18.69 42 16.38 42 14 42 C14.03222656 40.88625 14.06445312 39.7725 14.09765625 38.625 C14.12530552 25.42902277 10.2146159 16.98264218 2.81494141 6.28710938 C0 2.18317541 0 2.18317541 0 0 Z " fill="#3784E2" transform="translate(970,538)"/>
<path d="M0 0 C2.31 0 4.62 0 7 0 C7 11.88 7 23.76 7 36 C13.20792914 35.96041973 13.20792914 35.96041973 19.41577148 35.90991211 C20.18477783 35.90741455 20.95378418 35.90491699 21.74609375 35.90234375 C22.53685303 35.89710693 23.3276123 35.89187012 24.14233398 35.88647461 C26 36 26 36 27 37 C27 38.65 27 40.3 27 42 C18.09 42 9.18 42 0 42 C0 28.14 0 14.28 0 0 Z " fill="#337ED9" transform="translate(946,538)"/>
<path d="M0 0 C1.98 0 3.96 0 6 0 C6.17061496 3.89164602 6.33077072 7.78358372 6.48217773 11.67602539 C6.56035734 13.63384236 6.64628075 15.59134529 6.73242188 17.54882812 C7.0467621 25.78454204 6.83278729 33.79978061 6 42 C2.78125 42.35546875 2.78125 42.35546875 -1 42 C-3.46875 39.55078125 -3.46875 39.55078125 -5.5 36.3125 C-6.53640625 34.72888672 -6.53640625 34.72888672 -7.59375 33.11328125 C-9.13367718 29.70405357 -9.21399501 28.46595575 -8 25 C-7.67 24.34 -7.34 23.68 -7 23 C-6.34 23 -5.68 23 -5 23 C-3.02 25.97 -3.02 25.97 -1 29 C-0.67 19.43 -0.34 9.86 0 0 Z " fill="#3686E6" transform="translate(888,538)"/>
<path d="M0 0 C1.98 0 3.96 0 6 0 C6 13.86 6 27.72 6 42 C4.02 42 2.04 42 0 42 C-1.05928333 34.23192224 -1.14947817 26.5830137 -1.125 18.75 C-1.12886719 17.49703125 -1.13273438 16.2440625 -1.13671875 14.953125 C-1.13542969 13.7465625 -1.13414062 12.54 -1.1328125 11.296875 C-1.13168457 10.20729492 -1.13055664 9.11771484 -1.12939453 7.99511719 C-1.00937252 5.21694732 -0.63093546 2.70293502 0 0 Z " fill="#3A8AEA" transform="translate(785,538)"/>
<path d="M0 0 C0.66 0.33 1.32 0.66 2 1 C1.54149658 1.42821045 1.08299316 1.8564209 0.6105957 2.29760742 C-1.48960991 4.26000775 -3.58856315 6.22374272 -5.6875 8.1875 C-6.40873047 8.86103516 -7.12996094 9.53457031 -7.87304688 10.22851562 C-10.93864221 13.09813683 -13.98535692 15.95944936 -16.89453125 18.98828125 C-19 21 -19 21 -21 21 C-21.23976563 21.54011719 -21.47953125 22.08023437 -21.7265625 22.63671875 C-23.32964638 25.61176705 -25.30882887 28.13883337 -27.375 30.8125 C-30.62148432 35.07058396 -33.46674672 39.28290769 -36 44 C-37.0308415 45.79791677 -38.07322327 47.58924957 -39.125 49.375 C-39.62257813 50.22835937 -40.12015625 51.08171875 -40.6328125 51.9609375 C-42 54 -42 54 -44 55 C-43.4285171 50.41947799 -41.49421921 46.93628931 -39.125 43.0625 C-38.7242627 42.40572266 -38.32352539 41.74894531 -37.91064453 41.07226562 C-31.45993502 30.72533749 -23.88885371 21.6511537 -15.3125 13 C-14.70712402 12.38898438 -14.10174805 11.77796875 -13.47802734 11.1484375 C-9.27094412 7.00860378 -4.80085916 3.42929727 0 0 Z " fill="#58A0E6" transform="translate(356,338)"/>
<path d="M0 0 C1.65 0 3.3 0 5 0 C5.11755481 3.64555558 5.18769812 7.29061474 5.25 10.9375 C5.28351562 11.95908203 5.31703125 12.98066406 5.3515625 14.03320312 C5.4398796 20.94401602 4.38983396 25.95505088 1 32 C0.67 32 0.34 32 0 32 C0 21.44 0 10.88 0 0 Z " fill="#3C8EF1" transform="translate(889,538)"/>
<path d="M0 0 C0.79792969 0.00193359 1.59585937 0.00386719 2.41796875 0.00585938 C3.24683594 0.01810547 4.07570313 0.03035156 4.9296875 0.04296875 C5.76628906 0.04361328 6.60289063 0.04425781 7.46484375 0.04492188 C13.66435587 0.09013712 13.66435587 0.09013712 14.8046875 1.23046875 C14.8046875 2.88046875 14.8046875 4.53046875 14.8046875 6.23046875 C-14.2353125 6.23046875 -43.2753125 6.23046875 -73.1953125 6.23046875 C-73.1953125 5.90046875 -73.1953125 5.57046875 -73.1953125 5.23046875 C-44.8153125 5.23046875 -16.4353125 5.23046875 12.8046875 5.23046875 C12.8046875 4.24046875 12.8046875 3.25046875 12.8046875 2.23046875 C6.2046875 2.23046875 -0.3953125 2.23046875 -7.1953125 2.23046875 C-4.11562187 0.17734167 -3.47562545 -0.01950879 0 0 Z " fill="#2D81DB" transform="translate(1222.1953125,611.76953125)"/>
<path d="M0 0 C0.33 0 0.66 0 1 0 C1.33 6.93 1.66 13.86 2 21 C2.99 20.34 3.98 19.68 5 19 C5 25.6 5 32.2 5 39 C4.01 39 3.02 39 2 39 C1.34 39.66 0.68 40.32 0 41 C0 27.47 0 13.94 0 0 Z " fill="#2972C6" transform="translate(860,539)"/>
<path d="M0 0 C0.66 0 1.32 0 2 0 C1.9278125 0.85078125 1.855625 1.7015625 1.78125 2.578125 C1.12042219 11.20559912 0.91965216 19.73030258 1.125 28.38378906 C1.13660156 29.20073242 1.14820313 30.01767578 1.16015625 30.859375 C1.17699463 31.58608398 1.19383301 32.31279297 1.21118164 33.06152344 C1 35 1 35 -1 38 C-2.02749848 34.91750456 -2.12907442 32.78385179 -2.1328125 29.5546875 C-2.13410156 28.47703125 -2.13539063 27.399375 -2.13671875 26.2890625 C-2.13285156 25.16242188 -2.12898438 24.03578125 -2.125 22.875 C-2.12886719 21.7715625 -2.13273437 20.668125 -2.13671875 19.53125 C-2.1160356 2.1160356 -2.1160356 2.1160356 0 0 Z " fill="#4997DC" transform="translate(296,440)"/>
<path d="M0 0 C1.485 0.99 1.485 0.99 3 2 C3.66 1.34 4.32 0.68 5 0 C5 10.56 5 21.12 5 32 C3.35 32 1.7 32 0 32 C0.33 30.68 0.66 29.36 1 28 C1 28.66 1 29.32 1 30 C1.99 30 2.98 30 4 30 C3.67 23.73 3.34 17.46 3 11 C2.01 11.66 1.02 12.32 0 13 C0 8.71 0 4.42 0 0 Z " fill="#4297F4" transform="translate(861,548)"/>
<path d="M0 0 C2.37811979 3.56717969 4.08292762 6.2585199 3.875 10.625 C2.81631761 13.49856648 1.57391153 14.42244132 -1 16 C-4.7803864 6.19662509 -4.7803864 6.19662509 -3 2 C-2.01 1.34 -1.02 0.68 0 0 Z " fill="#3181E0" transform="translate(840,544)"/>
<path d="M0 0 C1.134375 0.020625 2.26875 0.04125 3.4375 0.0625 C4.78521696 2.28226911 5.48148726 3.56397776 5.25 6.1875 C4.4375 8.0625 4.4375 8.0625 1.4375 10.0625 C1.4375 9.0725 1.4375 8.0825 1.4375 7.0625 C-0.5425 7.0625 -2.5225 7.0625 -4.5625 7.0625 C-4.60504356 5.06295254 -4.60330783 3.06208364 -4.5625 1.0625 C-3.5625 0.0625 -3.5625 0.0625 0 0 Z " fill="#3F91F0" transform="translate(834.5625,537.9375)"/>
<path d="M0 0 C3.96 0 7.92 0 12 0 C11.34 1.32 10.68 2.64 10 4 C14.29 4 18.58 4 23 4 C23 4.33 23 4.66 23 5 C15.41 5 7.82 5 0 5 C0 3.35 0 1.7 0 0 Z " fill="#418FEC" transform="translate(1011,538)"/>
<path d="M0 0 C0.79792969 0.00193359 1.59585937 0.00386719 2.41796875 0.00585938 C3.24683594 0.01810547 4.07570313 0.03035156 4.9296875 0.04296875 C5.76628906 0.04361328 6.60289063 0.04425781 7.46484375 0.04492188 C13.66435587 0.09013712 13.66435587 0.09013712 14.8046875 1.23046875 C14.8046875 2.88046875 14.8046875 4.53046875 14.8046875 6.23046875 C8.8646875 6.23046875 2.9246875 6.23046875 -3.1953125 6.23046875 C-3.1953125 5.90046875 -3.1953125 5.57046875 -3.1953125 5.23046875 C2.0846875 5.23046875 7.3646875 5.23046875 12.8046875 5.23046875 C12.8046875 4.24046875 12.8046875 3.25046875 12.8046875 2.23046875 C6.2046875 2.23046875 -0.3953125 2.23046875 -7.1953125 2.23046875 C-4.11562187 0.17734167 -3.47562545 -0.01950879 0 0 Z " fill="#2B71C3" transform="translate(1222.1953125,611.76953125)"/>
<path d="M0 0 C3.96 0 7.92 0 12 0 C12 1.98 12 3.96 12 6 C9.95733571 8.04266429 5.86308566 7.18507944 3.0625 7.1875 C2.32064453 7.19974609 1.57878906 7.21199219 0.81445312 7.22460938 C-1.12513629 7.22988478 -3.0642371 7.12188902 -5 7 C-5.66 6.34 -6.32 5.68 -7 5 C0.92 4.505 0.92 4.505 9 4 C5.81237635 1.87491756 3.73487777 1.4979837 0 1 C0 0.67 0 0.34 0 0 Z " fill="#296CBA" transform="translate(1064,555)"/>
<path d="M0 0 C5.61 0 11.22 0 17 0 C17 1.32 17 2.64 17 4 C11.72 4 6.44 4 1 4 C1.33 3.34 1.66 2.68 2 2 C1.34 1.34 0.68 0.68 0 0 Z " fill="#3E8EEF" transform="translate(955,575)"/>
<path d="M0 0 C0.33 0.99 0.66 1.98 1 3 C2.98 3 4.96 3 7 3 C5.8451389 6.46458331 4.01986134 8.970208 2 12 C2 10.35 2 8.7 2 7 C-0.475 8.485 -0.475 8.485 -3 10 C-2.01 6.7 -1.02 3.4 0 0 Z " fill="#307FD8" transform="translate(829,542)"/>
<path d="M0 0 C0.66 0 1.32 0 2 0 C1.67 4.95 1.34 9.9 1 15 C0.67 15 0.34 15 0 15 C-0.95348275 10.23258627 -1.16407956 5.84034716 -1 1 C-0.67 0.67 -0.34 0.34 0 0 Z " fill="#509CEC" transform="translate(296,440)"/>
<path d="M0 0 C0.66 0 1.32 0 2 0 C2.33 1.32 2.66 2.64 3 4 C3.99 4 4.98 4 6 4 C6 3.34 6 2.68 6 2 C6.66 2 7.32 2 8 2 C8.33 3.32 8.66 4.64 9 6 C6.69 6 4.38 6 2 6 C1.34 4.02 0.68 2.04 0 0 Z " fill="#3281DA" transform="translate(931,574)"/>
<path d="M0 0 C0.99 0.33 1.98 0.66 3 1 C0.69 3.31 -1.62 5.62 -4 8 C-4.66 7.34 -5.32 6.68 -6 6 C-4.02 4.02 -2.04 2.04 0 0 Z " fill="#5BA7F3" transform="translate(343,349)"/>
<path d="M0 0 C0 0.99 0 1.98 0 3 C-2.31 3 -4.62 3 -7 3 C-7.33 2.34 -7.66 1.68 -8 1 C-5.29120665 -0.35439668 -2.99066732 -0.06501451 0 0 Z " fill="#2E82ED" transform="translate(923,565)"/>
<path d="M0 0 C1.305239 3.91571701 0.32239848 5.03892997 -1.4375 8.6875 C-1.91058594 9.68136719 -2.38367188 10.67523438 -2.87109375 11.69921875 C-3.42990234 12.83810547 -3.42990234 12.83810547 -4 14 C-5.1197034 10.2170021 -4.74786637 8.58312605 -3 5 C-2.02763513 3.3170608 -1.03435556 1.64556566 0 0 Z " fill="#559EE4" transform="translate(327,392)"/>
<path d="M0 0 C2.31 0 4.62 0 7 0 C6.01 1.485 6.01 1.485 5 3 C1.875 3.1875 1.875 3.1875 -1 3 C-0.67 2.01 -0.34 1.02 0 0 Z " fill="#2D80EE" transform="translate(1058,557)"/>
<path d="M0 0 C0.33 0 0.66 0 1 0 C0.6875 3.375 0.6875 3.375 0 7 C-0.99 7.66 -1.98 8.32 -3 9 C-2.5020163 5.26512223 -2.12508244 3.18762365 0 0 Z " fill="#58A3ED" transform="translate(309,397)"/>
<path d="M0 0 C0.33 0.99 0.66 1.98 1 3 C-0.40445835 5.2636564 -2.1967913 7.0208685 -4 9 C-4.66 8.67 -5.32 8.34 -6 8 C-4.02 5.36 -2.04 2.72 0 0 Z " fill="#3782DB" transform="translate(557,547)"/>
<path d="M0 0 C0.66 0.66 1.32 1.32 2 2 C1.01 4.31 0.02 6.62 -1 9 C-1.33 9 -1.66 9 -2 9 C-1.125 1.125 -1.125 1.125 0 0 Z " fill="#57A3EC" transform="translate(303,412)"/>
<path d="M0 0 C-1.39332574 3.36720387 -2.9789286 4.9859524 -6 7 C-5.37162381 3.35541809 -4.14650034 0 0 0 Z " fill="#338BED" transform="translate(552,556)"/>
<path d="M0 0 C0.33 1.32 0.66 2.64 1 4 C-0.9375 6.25 -0.9375 6.25 -3 8 C-3.66 7.67 -4.32 7.34 -5 7 C-3.35 4.69 -1.7 2.38 0 0 Z " fill="#2F7AD5" transform="translate(563,539)"/>
<path d="M0 0 C2.31 0 4.62 0 7 0 C6.34 1.98 5.68 3.96 5 6 C4.731875 5.38125 4.46375 4.7625 4.1875 4.125 C3.04443152 1.7004767 3.04443152 1.7004767 0 0 Z " fill="#347ED2" transform="translate(998,538)"/>
<path d="" fill="#020E1D" transform="translate(0,0)"/>
</svg>
